# Blender 3.4.1
# www.blender.org
mtllib cornell_box.mtl
o Plane
v -0.500000 1.950000 0.500000
v 0.500000 1.950000 0.500000
v -0.500000 1.950000 -0.500000
v 0.500000 1.950000 -0.500000
vn -0.0000 1.0000 -0.0000
vt 0.000000 0.000000
vt 1.000000 0.000000
vt 0.000000 1.000000
vt 1.000000 1.000000
s 0
usemtl Light
f 2/2/1 3/3/1 1/1/1
f 2/2/1 4/4/1 3/3/1
o Cube
v -1.730623 -2.000000 2.000000
v -1.730623 2.000000 2.000000
v -1.730623 -2.000000 -2.000000
v -1.730623 2.000000 -2.000000
v 1.730623 -2.000000 2.000000
v 1.730623 2.000000 2.000000
v 1.730623 -2.000000 -2.000000
v 1.730623 2.000000 -2.000000
vn -1.0000 -0.0000 -0.0000
vn -0.0000 -0.0000 -1.0000
vn 1.0000 -0.0000 -0.0000
vn -0.0000 -1.0000 -0.0000
vn -0.0000 1.0000 -0.0000
vt 0.375000 0.000000
vt 0.125000 0.750000
vt 0.625000 0.000000
vt 0.875000 0.750000
vt 0.125000 0.500000
vt 0.375000 0.250000
vt 0.625000 0.250000
vt 0.875000 0.500000
vt 0.375000 0.750000
vt 0.625000 0.750000
vt 0.375000 0.500000
vt 0.625000 0.500000
s 0
usemtl Box
f 8/11/3 11/15/3 7/10/3
f 11/15/5 5/6/5 7/9/5
f 8/12/6 10/14/6 12/16/6
f 8/11/3 12/16/3 11/15/3
f 11/15/5 9/13/5 5/6/5
f 8/12/6 6/8/6 10/14/6
usemtl Box_left
f 6/7/2 7/10/2 5/5/2
f 6/7/2 8/11/2 7/10/2
usemtl Box_right
f 12/16/4 9/13/4 11/15/4
f 12/16/4 10/14/4 9/13/4
o Cube.001
v -1.110972 -1.990000 -0.138061
v -1.110972 -1.010000 -0.138061
v -1.534196 -1.990000 -1.010940
v -1.534196 -1.010000 -1.010940
v -0.238093 -1.990000 -0.561285
v -0.238093 -1.010000 -0.561285
v -0.661317 -1.990000 -1.434164
v -0.661317 -1.010000 -1.434164
vn -0.8998 -0.0000 0.4363
vn -0.4363 -0.0000 -0.8998
vn 0.8998 -0.0000 -0.4363
vn 0.4363 -0.0000 0.8998
vn -0.0000 -1.0000 -0.0000
vn -0.0000 1.0000 -0.0000
vt 0.375000 0.000000
vt 0.375000 1.000000
vt 0.125000 0.750000
vt 0.625000 0.000000
vt 0.625000 1.000000
vt 0.875000 0.750000
vt 0.125000 0.500000
vt 0.375000 0.250000
vt 0.625000 0.250000
vt 0.875000 0.500000
vt 0.375000 0.750000
vt 0.625000 0.750000
vt 0.375000 0.500000
vt 0.625000 0.500000
s 0
usemtl small_cube
f 14/20/7 15/24/7 13/17/7
f 16/25/8 19/29/8 15/24/8
f 20/30/9 17/27/9 19/29/9
f 18/28/10 13/18/10 17/27/10
f 19/29/11 13/19/11 15/23/11
f 16/26/12 18/28/12 20/30/12
f 14/20/7 16/25/7 15/24/7
f 16/25/8 20/30/8 19/29/8
f 20/30/9 18/28/9 17/27/9
f 18/28/10 14/21/10 13/18/10
f 19/29/11 17/27/11 13/19/11
f 16/26/12 14/22/12 18/28/12
o Cube.003
v 0.120974 -1.990000 0.904287
v 0.120974 -0.010000 0.904287
v 0.489952 -1.990000 0.007129
v 0.489952 -0.010000 0.007129
v 1.018132 -1.990000 1.273264
v 1.018132 -0.010000 1.273264
v 1.387109 -1.990000 0.376107
v 1.387109 -0.010000 0.376107
vn -0.9248 -0.0000 -0.3804
vn 0.3804 -0.0000 -0.9248
vn 0.9248 -0.0000 0.3804
vn -0.3804 -0.0000 0.9248
vn -0.0000 -1.0000 -0.0000
vn -0.0000 1.0000 -0.0000
vt 0.375000 0.000000
vt 0.375000 1.000000
vt 0.125000 0.750000
vt 0.625000 0.000000
vt 0.625000 1.000000
vt 0.875000 0.750000
vt 0.125000 0.500000
vt 0.375000 0.250000
vt 0.625000 0.250000
vt 0.875000 0.500000
vt 0.375000 0.750000
vt 0.625000 0.750000
vt 0.375000 0.500000
vt 0.625000 0.500000
s 0
usemtl tall_cube
f 22/34/13 23/38/13 21/31/13
f 24/39/14 27/43/14 23/38/14
f 28/44/15 25/41/15 27/43/15
f 26/42/16 21/32/16 25/41/16
f 27/43/17 21/33/17 23/37/17
f 24/40/18 26/42/18 28/44/18
f 22/34/13 24/39/13 23/38/13
f 24/39/14 28/44/14 27/43/14
f 28/44/15 26/42/15 25/41/15
f 26/42/16 22/35/16 21/32/16
f 27/43/17 25/41/17 21/33/17
f 24/40/18 22/36/18 26/42/18
